<svg viewBox="0 0 24 24" fill="none" xmlns="http://www.w3.org/2000/svg" width="24" height="24" color="#000000"> <path d="M21.3719 15.6309C20.2684 16.956 18.8367 17.9393 17.2334 18.473C15.6301 19.0067 13.917 19.0704 12.2814 18.6571C10.6457 18.2438 9.15055 17.3694 7.95934 16.1295C6.76812 14.8896 5.92673 13.332 5.52719 11.627M21.2184 15.6492C19.954 15.9891 18.6333 16.0659 17.338 15.8749C16.0427 15.6839 14.8003 15.2292 13.6877 14.539M9.10234 10.4595C10.1705 8.26299 12.0379 6.55788 14.3223 5.69336C16.6066 4.82884 19.1351 4.87032 21.3899 5.80932M17.0459 10.7604C17.0589 11.692 16.7246 12.595 16.1082 13.2936C15.4918 13.9922 14.6374 14.4363 13.7115 14.5395M17.0539 10.76C17.0185 10.0973 17.1067 9.43344 17.3124 8.81304C17.5181 8.19263 17.8367 7.62996 18.2468 7.16271C18.6569 6.69546 19.149 6.33442 19.6902 6.10377C20.2315 5.87312 20.8093 5.77819 21.385 5.82533M2.61014 9.67504C3.25471 9.54767 3.92316 9.68176 4.47004 10.0481C5.01691 10.4145 5.39796 10.9836 5.53027 11.6314M2.61548 9.66784C2.80683 9.18255 3.11992 8.75471 3.5246 8.42553C3.92927 8.09635 4.41189 7.87692 4.92597 7.78838C5.44005 7.69983 5.96827 7.74516 6.45976 7.91998C6.95124 8.09481 7.38942 8.39325 7.7321 8.78656M7.72977 8.78461L9.07743 10.4877" stroke="#000000" stroke-width="1.5" stroke-linecap="round" stroke-linejoin="round"/> </svg>